<mxfile host="app.diagrams.net" modified="2023-10-26T05:28:34.481Z" agent="Mozilla/5.0 (Windows NT 10.0; Win64; x64) AppleWebKit/537.36 (KHTML, like Gecko) Chrome/118.0.0.0 Safari/537.36" etag="WaQ7ljm2lA79BVCMt65k" version="22.0.8" type="github">
  <diagram name="Page-1" id="9361dd3d-8414-5efd-6122-117bd74ce7a7">
    <mxGraphModel dx="1434" dy="1158" grid="1" gridSize="10" guides="1" tooltips="1" connect="1" arrows="1" fold="1" page="0" pageScale="1.5" pageWidth="826" pageHeight="1169" background="none" math="0" shadow="0">
      <root>
        <mxCell id="0" />
        <mxCell id="1" parent="0" />
        <mxCell id="GqUtMFxcOgFXmz0cksvn-129" value="&lt;h1&gt;&lt;br&gt;&lt;/h1&gt;" style="rounded=1;whiteSpace=wrap;html=1;fillColor=#f8cecc;fillStyle=auto;strokeColor=#b85450;align=left;labelBackgroundColor=none;" vertex="1" parent="1">
          <mxGeometry x="50" y="690" width="1120" height="180" as="geometry" />
        </mxCell>
        <mxCell id="GqUtMFxcOgFXmz0cksvn-126" value="&lt;h1&gt;&lt;br&gt;&lt;/h1&gt;" style="rounded=1;whiteSpace=wrap;html=1;fillColor=#d5e8d4;fillStyle=auto;strokeColor=#82b366;align=left;labelBackgroundColor=none;" vertex="1" parent="1">
          <mxGeometry x="50" y="337" width="1120" height="343" as="geometry" />
        </mxCell>
        <mxCell id="GqUtMFxcOgFXmz0cksvn-124" value="&lt;h1&gt;&lt;br&gt;&lt;/h1&gt;" style="rounded=1;whiteSpace=wrap;html=1;fillColor=#dae8fc;fillStyle=auto;strokeColor=#6c8ebf;align=left;labelBackgroundColor=none;" vertex="1" parent="1">
          <mxGeometry x="50" y="-60" width="1120" height="390" as="geometry" />
        </mxCell>
        <mxCell id="GqUtMFxcOgFXmz0cksvn-89" value="&lt;b&gt;需求提出方&lt;/b&gt;" style="shape=umlLifeline;perimeter=lifelinePerimeter;whiteSpace=wrap;html=1;container=1;dropTarget=0;collapsible=0;recursiveResize=0;outlineConnect=0;portConstraint=eastwest;newEdgeStyle={&quot;curved&quot;:0,&quot;rounded&quot;:0};fontSize=14;labelBackgroundColor=none;" vertex="1" parent="1">
          <mxGeometry x="120" y="-120" width="100" height="990" as="geometry" />
        </mxCell>
        <mxCell id="GqUtMFxcOgFXmz0cksvn-90" value="&lt;b&gt;数据制作&lt;br style=&quot;font-size: 14px;&quot;&gt;王文环&lt;/b&gt;" style="shape=umlLifeline;perimeter=lifelinePerimeter;whiteSpace=wrap;html=1;container=1;dropTarget=0;collapsible=0;recursiveResize=0;outlineConnect=0;portConstraint=eastwest;newEdgeStyle={&quot;curved&quot;:0,&quot;rounded&quot;:0};fontSize=14;labelBackgroundColor=none;" vertex="1" parent="1">
          <mxGeometry x="320" y="-120" width="100" height="990" as="geometry" />
        </mxCell>
        <mxCell id="GqUtMFxcOgFXmz0cksvn-99" value="填写变更申请，描述数据需求" style="html=1;verticalAlign=bottom;startArrow=oval;endArrow=block;startSize=8;curved=0;rounded=0;entryX=0;entryY=0;entryDx=0;entryDy=5;fontSize=14;labelBackgroundColor=none;" edge="1" parent="1">
          <mxGeometry relative="1" as="geometry">
            <mxPoint x="170" y="-35" as="sourcePoint" />
            <mxPoint x="365" y="-35" as="targetPoint" />
          </mxGeometry>
        </mxCell>
        <mxCell id="GqUtMFxcOgFXmz0cksvn-103" value="" style="edgeStyle=segmentEdgeStyle;endArrow=classic;html=1;curved=0;rounded=0;endSize=8;startSize=8;fontSize=14;labelBackgroundColor=none;" edge="1" parent="1" target="GqUtMFxcOgFXmz0cksvn-90">
          <mxGeometry width="50" height="50" relative="1" as="geometry">
            <mxPoint x="369.5" y="-10" as="sourcePoint" />
            <mxPoint x="369.5" y="10" as="targetPoint" />
          </mxGeometry>
        </mxCell>
        <mxCell id="GqUtMFxcOgFXmz0cksvn-104" value="确认数据需求并梳理变更" style="html=1;verticalAlign=bottom;endArrow=block;curved=0;rounded=0;fontSize=14;labelBackgroundColor=none;" edge="1" parent="1" target="GqUtMFxcOgFXmz0cksvn-90">
          <mxGeometry x="0.108" y="20" width="80" relative="1" as="geometry">
            <mxPoint x="370" as="sourcePoint" />
            <mxPoint x="440" y="80" as="targetPoint" />
            <Array as="points">
              <mxPoint x="440" />
              <mxPoint x="440" y="40" />
            </Array>
            <mxPoint as="offset" />
          </mxGeometry>
        </mxCell>
        <mxCell id="GqUtMFxcOgFXmz0cksvn-105" value="&lt;b&gt;ATO/ATP/ZC/CBI&lt;br style=&quot;font-size: 14px;&quot;&gt;负责人&lt;/b&gt;" style="shape=umlLifeline;perimeter=lifelinePerimeter;whiteSpace=wrap;html=1;container=1;dropTarget=0;collapsible=0;recursiveResize=0;outlineConnect=0;portConstraint=eastwest;newEdgeStyle={&quot;curved&quot;:0,&quot;rounded&quot;:0};fontSize=14;labelBackgroundColor=none;" vertex="1" parent="1">
          <mxGeometry x="520" y="-120" width="120" height="990" as="geometry" />
        </mxCell>
        <mxCell id="GqUtMFxcOgFXmz0cksvn-106" value="&lt;b&gt;测试组&lt;br style=&quot;font-size: 14px;&quot;&gt;毛小侠&lt;br&gt;&lt;/b&gt;" style="shape=umlLifeline;perimeter=lifelinePerimeter;whiteSpace=wrap;html=1;container=1;dropTarget=0;collapsible=0;recursiveResize=0;outlineConnect=0;portConstraint=eastwest;newEdgeStyle={&quot;curved&quot;:0,&quot;rounded&quot;:0};fontSize=14;labelBackgroundColor=none;" vertex="1" parent="1">
          <mxGeometry x="720" y="-120" width="100" height="1000" as="geometry" />
        </mxCell>
        <mxCell id="GqUtMFxcOgFXmz0cksvn-107" value="&lt;b&gt;安质组&lt;br style=&quot;font-size: 14px;&quot;&gt;刘铭&lt;br&gt;&lt;/b&gt;" style="shape=umlLifeline;perimeter=lifelinePerimeter;whiteSpace=wrap;html=1;container=1;dropTarget=0;collapsible=0;recursiveResize=0;outlineConnect=0;portConstraint=eastwest;newEdgeStyle={&quot;curved&quot;:0,&quot;rounded&quot;:0};fontSize=14;labelBackgroundColor=none;" vertex="1" parent="1">
          <mxGeometry x="920" y="-120" width="100" height="1000" as="geometry" />
        </mxCell>
        <mxCell id="GqUtMFxcOgFXmz0cksvn-108" value="邮件发送变更通知并邀请评审" style="html=1;verticalAlign=bottom;endArrow=block;curved=0;rounded=0;fontSize=14;labelBackgroundColor=none;strokeColor=#ed0707;" edge="1" parent="1" target="GqUtMFxcOgFXmz0cksvn-105">
          <mxGeometry x="0.0025" width="80" relative="1" as="geometry">
            <mxPoint x="370" y="80" as="sourcePoint" />
            <mxPoint x="450" y="80" as="targetPoint" />
            <mxPoint as="offset" />
          </mxGeometry>
        </mxCell>
        <mxCell id="GqUtMFxcOgFXmz0cksvn-110" value="邮件抄送变更通知" style="html=1;verticalAlign=bottom;endArrow=block;curved=0;rounded=0;fontSize=14;labelBackgroundColor=none;" edge="1" parent="1" target="GqUtMFxcOgFXmz0cksvn-106">
          <mxGeometry width="80" relative="1" as="geometry">
            <mxPoint x="370" y="120" as="sourcePoint" />
            <mxPoint x="450" y="120" as="targetPoint" />
          </mxGeometry>
        </mxCell>
        <mxCell id="GqUtMFxcOgFXmz0cksvn-112" value="邮件抄送变更通知" style="html=1;verticalAlign=bottom;endArrow=block;curved=0;rounded=0;fontSize=14;labelBackgroundColor=none;" edge="1" parent="1" target="GqUtMFxcOgFXmz0cksvn-107">
          <mxGeometry width="80" relative="1" as="geometry">
            <mxPoint x="370" y="160" as="sourcePoint" />
            <mxPoint x="450" y="160" as="targetPoint" />
          </mxGeometry>
        </mxCell>
        <mxCell id="GqUtMFxcOgFXmz0cksvn-113" value="填写影响内容并更新SVN&lt;br style=&quot;font-size: 14px;&quot;&gt;若无影响内容需填写无影响&amp;nbsp;" style="html=1;verticalAlign=bottom;endArrow=block;curved=0;rounded=0;fontSize=14;labelBackgroundColor=none;" edge="1" parent="1" target="GqUtMFxcOgFXmz0cksvn-105">
          <mxGeometry x="0.2352" y="40" width="80" relative="1" as="geometry">
            <mxPoint x="580" y="200" as="sourcePoint" />
            <mxPoint x="570" y="240" as="targetPoint" />
            <Array as="points">
              <mxPoint x="640" y="200" />
              <mxPoint x="640" y="280" />
            </Array>
            <mxPoint as="offset" />
          </mxGeometry>
        </mxCell>
        <mxCell id="GqUtMFxcOgFXmz0cksvn-114" value="邮件回复已评审" style="html=1;verticalAlign=bottom;endArrow=block;curved=0;rounded=0;fontSize=14;labelBackgroundColor=none;strokeColor=#FF3333;" edge="1" parent="1" source="GqUtMFxcOgFXmz0cksvn-105">
          <mxGeometry width="80" relative="1" as="geometry">
            <mxPoint x="569.5" y="320" as="sourcePoint" />
            <mxPoint x="369.5" y="320" as="targetPoint" />
          </mxGeometry>
        </mxCell>
        <mxCell id="GqUtMFxcOgFXmz0cksvn-115" value="制作数据并发布到SVN" style="html=1;verticalAlign=bottom;endArrow=block;curved=0;rounded=0;fontSize=14;labelBackgroundColor=none;" edge="1" parent="1">
          <mxGeometry width="80" relative="1" as="geometry">
            <mxPoint x="370" y="360" as="sourcePoint" />
            <mxPoint x="370" y="440" as="targetPoint" />
            <Array as="points">
              <mxPoint x="440" y="360" />
              <mxPoint x="440" y="440" />
            </Array>
            <mxPoint as="offset" />
          </mxGeometry>
        </mxCell>
        <mxCell id="GqUtMFxcOgFXmz0cksvn-116" value="邮件发送数据发布通知" style="html=1;verticalAlign=bottom;endArrow=block;curved=0;rounded=0;fontSize=14;labelBackgroundColor=none;" edge="1" parent="1">
          <mxGeometry x="0.0013" width="80" relative="1" as="geometry">
            <mxPoint x="370" y="467" as="sourcePoint" />
            <mxPoint x="769.5" y="467" as="targetPoint" />
            <mxPoint as="offset" />
          </mxGeometry>
        </mxCell>
        <mxCell id="GqUtMFxcOgFXmz0cksvn-117" value="邮件抄送数据发布通知" style="html=1;verticalAlign=bottom;endArrow=block;curved=0;rounded=0;fontSize=14;entryX=0.467;entryY=0.647;entryDx=0;entryDy=0;entryPerimeter=0;labelBackgroundColor=none;" edge="1" parent="1">
          <mxGeometry x="0.0025" width="80" relative="1" as="geometry">
            <mxPoint x="370" y="501" as="sourcePoint" />
            <mxPoint x="576.04" y="501.53" as="targetPoint" />
            <mxPoint as="offset" />
          </mxGeometry>
        </mxCell>
        <mxCell id="GqUtMFxcOgFXmz0cksvn-118" value="执行数据验证与测试" style="html=1;verticalAlign=bottom;endArrow=block;curved=0;rounded=0;fontSize=14;labelBackgroundColor=none;" edge="1" parent="1">
          <mxGeometry width="80" relative="1" as="geometry">
            <mxPoint x="770" y="484" as="sourcePoint" />
            <mxPoint x="770" y="564" as="targetPoint" />
            <Array as="points">
              <mxPoint x="840" y="484" />
              <mxPoint x="840" y="564" />
            </Array>
            <mxPoint as="offset" />
          </mxGeometry>
        </mxCell>
        <mxCell id="GqUtMFxcOgFXmz0cksvn-119" value="若测试不通过，反馈问题" style="html=1;verticalAlign=bottom;endArrow=block;curved=0;rounded=0;fontSize=14;labelBackgroundColor=none;" edge="1" parent="1">
          <mxGeometry width="80" relative="1" as="geometry">
            <mxPoint x="770" y="615" as="sourcePoint" />
            <mxPoint x="369.5" y="615" as="targetPoint" />
          </mxGeometry>
        </mxCell>
        <mxCell id="GqUtMFxcOgFXmz0cksvn-120" value="数据修正后二次发布" style="html=1;verticalAlign=bottom;endArrow=block;curved=0;rounded=0;fontSize=14;labelBackgroundColor=none;" edge="1" parent="1">
          <mxGeometry x="0.0013" width="80" relative="1" as="geometry">
            <mxPoint x="370" y="665" as="sourcePoint" />
            <mxPoint x="770" y="665" as="targetPoint" />
            <mxPoint as="offset" />
          </mxGeometry>
        </mxCell>
        <mxCell id="GqUtMFxcOgFXmz0cksvn-122" value="通知数据测试通过，可进行归档" style="html=1;verticalAlign=bottom;endArrow=block;curved=0;rounded=0;fontSize=14;labelBackgroundColor=none;strokeColor=#eb0a0a;" edge="1" parent="1">
          <mxGeometry width="80" relative="1" as="geometry">
            <mxPoint x="770" y="733" as="sourcePoint" />
            <mxPoint x="969.5" y="733" as="targetPoint" />
          </mxGeometry>
        </mxCell>
        <mxCell id="GqUtMFxcOgFXmz0cksvn-123" value="数据归档" style="html=1;verticalAlign=bottom;endArrow=block;curved=0;rounded=0;fontSize=14;labelBackgroundColor=none;" edge="1" parent="1">
          <mxGeometry width="80" relative="1" as="geometry">
            <mxPoint x="970" y="780" as="sourcePoint" />
            <mxPoint x="970" y="860" as="targetPoint" />
            <Array as="points">
              <mxPoint x="1040" y="780" />
              <mxPoint x="1040" y="860" />
            </Array>
            <mxPoint as="offset" />
          </mxGeometry>
        </mxCell>
        <mxCell id="GqUtMFxcOgFXmz0cksvn-125" value="数&lt;br&gt;据&lt;br&gt;变&lt;br&gt;更&lt;br&gt;与&lt;br&gt;评&lt;br&gt;审" style="text;strokeColor=none;fillColor=none;html=1;fontSize=24;fontStyle=1;verticalAlign=middle;align=center;labelBackgroundColor=none;" vertex="1" parent="1">
          <mxGeometry x="70" y="60" width="70" height="110" as="geometry" />
        </mxCell>
        <mxCell id="GqUtMFxcOgFXmz0cksvn-128" value="数&lt;br&gt;据&lt;br&gt;制&lt;br&gt;作&lt;br&gt;与&lt;br&gt;测&lt;br&gt;试" style="text;strokeColor=none;fillColor=none;html=1;fontSize=24;fontStyle=1;verticalAlign=middle;align=center;labelBackgroundColor=none;" vertex="1" parent="1">
          <mxGeometry x="70" y="450" width="70" height="110" as="geometry" />
        </mxCell>
        <mxCell id="GqUtMFxcOgFXmz0cksvn-130" value="数&lt;br&gt;据&lt;br&gt;归&lt;br&gt;档" style="text;strokeColor=none;fillColor=none;html=1;fontSize=24;fontStyle=1;verticalAlign=middle;align=center;labelBackgroundColor=none;" vertex="1" parent="1">
          <mxGeometry x="70" y="725" width="70" height="110" as="geometry" />
        </mxCell>
        <mxCell id="GqUtMFxcOgFXmz0cksvn-131" value="&lt;b&gt;数据发布目录：&lt;br&gt;http://172.16.210.22/svn/SRDC-DATA-CBTC&lt;br&gt;&lt;/b&gt;&lt;br&gt;&lt;b&gt;数据变更目录：&lt;/b&gt;&lt;br&gt;&lt;b&gt;http://172.16.210.22/svn/SRDC-DATA-CBTC/90 变更管理&lt;br&gt;&lt;/b&gt;&lt;br&gt;&lt;b&gt;数据归档目录：&lt;/b&gt;&lt;br&gt;&lt;b&gt;http://172.16.210.22/svn/SRDC-NUSPRO100-ENVIRONMENT/7.NUSPRO100-DATA&lt;/b&gt;" style="shape=note;whiteSpace=wrap;html=1;backgroundOutline=1;darkOpacity=0.05;align=left;" vertex="1" parent="1">
          <mxGeometry x="60" y="890" width="1100" height="150" as="geometry" />
        </mxCell>
      </root>
    </mxGraphModel>
  </diagram>
</mxfile>
